<?xml version="1.0" standalone="no"?>
<!DOCTYPE svg PUBLIC "-//W3C//DTD SVG 20010904//EN"
 "http://www.w3.org/TR/2001/REC-SVG-20010904/DTD/svg10.dtd">
<svg version="1.0" xmlns="http://www.w3.org/2000/svg"
 width="700.000000pt" height="700.000000pt" viewBox="0 0 700.000000 700.000000"
 preserveAspectRatio="xMidYMid meet">
<metadata>
Created by potrace 1.14, written by Peter Selinger 2001-2017
</metadata>
<g transform="translate(0.000000,700.000000) scale(0.100000,-0.100000)"
fill="#000000" stroke="none">
<path d="M198 5099 c-94 -8 -158 -55 -186 -138 -9 -25 -12 -409 -12 -1478 0
-1283 2 -1448 16 -1481 19 -47 58 -88 106 -113 36 -19 94 -19 2580 -17 l2543
3 36 23 c43 27 84 83 96 132 5 19 9 115 8 213 0 97 2 177 5 178 3 0 331 2 730
3 674 1 728 3 761 19 43 21 69 48 98 99 20 38 21 46 21 945 0 607 -4 921 -11
946 -13 49 -59 100 -110 124 -38 18 -73 19 -765 18 -398 0 -724 2 -725 5 -1 3
-2 86 -3 185 -2 161 -5 184 -24 221 -25 50 -69 88 -118 104 -28 9 -618 13
-2508 14 -1359 0 -2501 -2 -2538 -5z m2837 -818 c81 -21 222 -84 263 -118 104
-86 136 -117 182 -178 194 -257 221 -615 67 -895 -296 -540 -1070 -569 -1408
-53 -47 73 -100 197 -113 263 -3 19 -8 46 -11 60 -13 59 -7 235 10 310 71 321
349 581 670 626 22 4 41 7 43 9 12 11 230 -7 297 -24z m3371 -262 c60 -28 68
-55 69 -226 l1 -143 -123 0 c-156 -1 -384 -1 -710 0 l-258 0 2 163 c1 89 2
176 2 194 l1 31 488 0 c464 1 489 0 528 -19z m64 -701 c5 -6 5 -176 1 -256 0
-12 -16 -39 -35 -60 l-34 -37 -506 -2 -506 -2 -1 22 c-1 43 -1 292 0 317 l1
25 538 0 c295 1 539 -3 542 -7z"/>
<path d="M2775 3638 c-103 -36 -142 -166 -74 -252 51 -64 150 -78 219 -29 41
29 70 83 70 132 0 48 -42 113 -90 138 -46 25 -78 27 -125 11z"/>
</g>
</svg>
